<?xml version="1.0" encoding="UTF-8"?><svg xmlns="http://www.w3.org/2000/svg" viewBox="0 0 348.17 885.61"><defs><style>.cls-1{fill:#f9eee1;}.cls-1,.cls-2,.cls-3,.cls-4,.cls-5{stroke-width:0px;}.cls-2{fill:#39506a;}.cls-3{fill:#596c84;}.cls-4{fill:#b3c9e5;}.cls-5{fill:#fff;}</style></defs><g id="Layer_3"><path class="cls-3" d="m183.96,7.98s-9.78-9.67-29.43-5.74-40.36,32.64-48.53,46.7c-8.18,14.06-40.02,69.46-37.88,106.74.91,15.77,5.51,25.62,12,31.89,7.92,7.66,21.74,11.5,32.45,11.58,2.96.02,12.77,4.3,16.23-1.64,1.77-3.03,7.35-.69,11.26-2.2,19.98-.87,41.35,4.7,61.33,3.84,0,0,8.65-4.42,22.24.22,14.3,4.89,33.76,3.14,41.57-13.38,7.82-16.52,6.92-30.44-2.38-62.09-9.3-31.65-13.5-58.32-22.84-82.47-9.34-24.15-25.5-34.9-47.81-33.1,0,0-3.35,2.25-8.2-.35Z"/><g id="Layer_4"><path class="cls-4" d="m45.75,594.54l-2.6,111.01-1.84,58.99-.76,85.55.76,34.41,97.14-6.39,4.53-75.45s.9-37.71,7.91-73.23,19.61-75.21,19.61-75.21l4.57-10.32s2.61-7.7,12.35,24.69c5.71,18.99,9.83,38.1,12.31,66.89,2.64,30.64,1.99,86.67,1.67,99.37s-1.14,42.92-1.14,42.92l94.47,6.73s5.98-44.29,7.32-77.88,2.08-79.85,1.51-125.51c-.53-43.21-1.51-85.68-1.51-85.68,0,0-21.28,6.05-52.45-2.14s-57.37-17.88-78.03-21.04l-20.66-3.16s-16.41-1.4-44.47,12.45c-32.55,16.07-60.68,13-60.68,13Z"/></g><path class="cls-1" d="m112.1,96.72l-.98,24.47s-6.14-1.76-8.73,2.81-3.56,16.35-3.56,16.35c0,0,3.89,6.91,5.27,7.49s10.05,1.74,10.05,1.74c0,0,3.8,22.12,26.57,47.61,0,0,10.36,32.88-15.24,42.92,0,0,1.14,19.82,17.95,32.82s26.93,21.13,33,27.89c0,0,31.22-32.54,34.36-42.7s3.44-23.08,3.44-23.08c0,0-18.6-6.2-12.85-36.9,0,0,27.16-12.16,36.54-52.93,0,0,11.18-2.41,11.64-13.85s-9.79-13.63-9.79-13.63l.19-9.89s-7.72-4.2-13.09-15.94-12.45-32.08-16.34-39.83-7.41-16.35-18.17-14.6c0,0-5.52,2.94-25.09-2.14,0,0-13.7-4.33-24.47,9.55-13.85,17.84-30.71,51.84-30.71,51.84Z"/><path class="cls-1" d="m274.32,390.44c-6.93,15.27-12.66,29.86-20.91,39.84-7.09,8.58-21.11,11.76-21.11,11.76,0,0-25.53,4.38-56.75,3.9-31.22-.48-53.92,1.57-69.14-10.29s-22.14-35.29-27.19-43.87c-5.05-8.58-15.47-19.04-24.86-26.05-9.39-7.01-11.77-9.78-15.42-3.25-2.46,4.39,3.38,12.55,8.46,16.11,0,0-10.55.22-20.4.13-9.85-.1-18.43-.99-18.43,2.08,0,3.08.51,8.61,9.93,8.44s20.14-1.3,24.1,3.38c3.96,4.68,6.59,9.67,6.59,9.67,0,0-14.83-3.68-25.4-1.9s-17.24,2.2-17.25,7.66c0,4.72,6.49,5.22,15.18,2.82,8.7-2.4,31.31,7.9,31.31,7.9l-35.54.05s-5.35-1.55-4.39,4.52c.97,6.06,9.15,5.5,15.79,5.66,6.65.16,28.03,1.63,32.37,8.7,0,0,6.71,11.55,11.12,14.51,0,0-7.25,5.15-15.44,18.06s-16.01,27.28-16.01,27.28c0,0,13.09,3.36,37.47,1.32s106.52-9.77,118.8-8.62c0,0,88.06,8.69,108.73,3.3,0,0-11.33-25.57-18.31-35.66s-12-21.89-12-21.89c0,0-1.98-7.97.76-8.04,2.73-.07,7.07-.28,7.07-.28,0,0,3.82-4.51,7.54-10.83,3.53-5.99,12.8-16.78,10.86-24.49,0,0,10.02-9.45,3.7-16.08,0,0,4.3-10.53-6.02-10.21l-5.83,6.93c-4.13-.4-15.22,8.23-19.41,17.46Z"/><g id="Layer_5"><path class="cls-2" d="m141.2,117.23c7.66,0,7.67-11.91,0-11.91s-7.67,11.91,0,11.91h0Z"/><path class="cls-2" d="m200.51,114.75c5.75,0,5.76-8.93,0-8.93s-5.76,8.93,0,8.93h0Z"/></g><g id="Layer_6"><circle class="cls-5" cx="142.52" cy="109.68" r="1.78"/><circle class="cls-5" cx="201.94" cy="109.68" r="1.78"/></g></g><g id="Layer_2"><path class="cls-2" d="m110.37,98.58c-.52,9.41-.32,18.79.16,28.19s1.28,18.87,3.68,28.01,6.7,17.36,12.08,25.14c4.97,7.2,10.3,14.35,17.32,19.68,14.45,10.98,34.03,10.82,50.16,3.86s28.55-18.83,36.5-33.55c3.99-7.39,6.55-15.38,7.67-23.71.68-5.08.99-10.2,1.38-15.31s.79-10.29,1.19-15.44c.19-2.53.39-5.07.58-7.6.11-1.44-2.14-1.44-2.25,0-.76,9.88-1.51,19.77-2.28,29.65-.7,8.85-2.01,17.46-5.52,25.67-6.32,14.77-17.84,27.21-31.81,35.07-15.05,8.47-34.16,11.28-49.76,2.52-7.5-4.22-13.22-10.87-18.22-17.74-5.36-7.37-10.37-15.02-13.32-23.71s-4.17-17.74-4.81-26.81-1-17.93-.78-26.88c.06-2.35.16-4.7.29-7.05.08-1.45-2.17-1.44-2.25,0h0Z"/><path class="cls-2" d="m154.83,92.33c-8.32-3.21-17.45-3.87-26.16-1.96-1.41.31-.82,2.48.6,2.17,8.33-1.82,17.02-1.11,24.97,1.96,1.35.52,1.94-1.65.6-2.17h0Z"/><path class="cls-2" d="m192.09,92.36c1.09-1.42,2.94-1.94,4.62-2.24,2.01-.36,4.1-.47,6.14-.52,4.43-.12,8.84.28,13.17,1.18,1.41.29,2.02-1.88.6-2.17-4.99-1.03-10.1-1.47-15.2-1.2-3.96.21-8.66.41-11.28,3.82-.88,1.15,1.07,2.27,1.94,1.14h0Z"/><path class="cls-2" d="m191.37,112.42c.02-5.08,4.93-8.15,9.6-8.04,5.27.13,9.68,3.43,13.27,7,1.03,1.02,2.62-.57,1.59-1.59-4.29-4.27-9.79-8.08-16.14-7.63-5.47.39-10.55,4.48-10.57,10.26,0,1.45,2.24,1.45,2.25,0h0Z"/><path class="cls-2" d="m203.01,107.57s.09.06.13.09c-.21-.15-.09-.07-.04-.03.07.07.15.14.23.22.06.06.23.31.08.08.07.1.14.2.2.3.06.09.11.19.16.29.05.1.11.28.04.07.08.24.17.48.23.73.03.11.04.23.07.34.01.06.03.22,0-.04,0,.04.01.09.01.13.02.25.04.5.03.75,0,.23-.02.47-.05.7.03-.26-.01.04-.03.13-.03.13-.05.25-.09.37-.05.2-.12.4-.2.59.1-.27-.02.03-.05.1-.06.12-.13.23-.2.34-.05.08-.25.28-.05.08-.06.06-.11.13-.17.19-.07.07-.15.13-.22.2-.11.1.16-.1.03-.02-.06.03-.12.08-.18.12-.1.06-.2.12-.3.17-.06.03-.39.16-.13.07-.24.09-.48.17-.73.23-.12.03-.24.05-.36.08-.05,0-.09.01-.14.02.23-.04.08,0,.02,0-.28.02-.57.04-.85.04-.13,0-.25,0-.38-.02-.05,0-.36-.04-.23-.02.13.02-.22-.04-.27-.05-.14-.03-.27-.06-.41-.1-.12-.03-.23-.07-.35-.11-.06-.02-.11-.04-.17-.06.04.01.21.1.02,0-.22-.11-.44-.23-.65-.36-.03-.02-.18-.13-.06-.04s-.02-.02-.05-.04c-.07-.07-.15-.13-.21-.2-.06-.06-.24-.29-.09-.09-.09-.12-.17-.24-.24-.36-.05-.09-.1-.18-.14-.27-.02-.03-.09-.21-.03-.07s-.01-.04-.03-.07c-.08-.24-.15-.48-.2-.74-.01-.06-.02-.12-.03-.18,0,.04.02.24,0,.03-.01-.12-.02-.24-.02-.37,0-.26.02-.52.03-.79,0-.17-.05.18,0,.02.01-.04.02-.09.02-.14.02-.12.05-.24.08-.36s.07-.24.11-.36c.02-.06.04-.12.06-.17.1-.28-.1.19.03-.07.11-.21.21-.41.34-.6.03-.05.07-.1.11-.15.08-.14-.12.12,0,.01.1-.1.18-.21.28-.3.09-.09.18-.17.28-.25-.03.03-.18.13,0,0,.11-.07.2-.14.31-.23.02-.02.04-.04.07-.06.03-.02.06-.05.09-.07.16-.14-.24.17-.08.06.12-.08.23-.16.35-.23.07-.04.15-.08.22-.12.04-.02.07-.03.11-.05.2-.11-.25.09-.03.01.2-.07.41-.14.62-.19.05-.01.1-.02.15-.03.21-.05-.16,0-.02,0,.13,0,.26-.02.38-.03.14,0,.27,0,.41.01.03,0,.24.02.09,0-.16-.02.12.02.15.03.79.15,1.27.4,1.97.85.51.33,1.24.1,1.54-.4.32-.55.11-1.21-.4-1.54-2.03-1.32-4.72-1.72-6.75-.2-.13.1-.27.2-.4.32-.19.17.27-.2-.02.01-.57.41-1.05.93-1.42,1.53-.67,1.08-.99,2.45-.89,3.72s.55,2.61,1.5,3.54,2.23,1.37,3.52,1.54,2.62-.02,3.81-.55,1.94-1.41,2.42-2.57c1-2.43.5-5.79-1.76-7.34-.5-.34-1.25-.09-1.54.4-.33.56-.1,1.19.4,1.54Z"/><path class="cls-2" d="m147.93,168.8c2.48,1.44,5.75,1.57,8.55,1.7,3.2.15,6.36-.09,9.56-.2,7.91-.29,15.78.65,23.67,1.04,3.42.17,8.65-.04,9.45-4.35.26-1.42-1.91-2.02-2.17-.6-.66,3.58-6.14,2.76-8.66,2.62-3.67-.2-7.34-.5-11-.73-3.43-.22-6.86-.35-10.29-.26-2.97.08-5.93.34-8.9.29s-6.5.03-9.05-1.45c-1.26-.73-2.39,1.22-1.14,1.94h0Z"/><path class="cls-2" d="m155.2,111.56c-1.13-2.6-3.33-4.41-5.74-5.8s-5.01-2.62-7.83-3.05c-3.01-.46-5.8.4-8.51,1.63s-5.2,2.72-6.43,5.42c-.6,1.31,1.34,2.45,1.94,1.14,1.08-2.36,3.35-3.58,5.62-4.61,2.39-1.09,4.88-1.8,7.52-1.28,2.3.46,4.36,1.45,6.39,2.61,2.18,1.24,4.07,2.74,5.09,5.08.58,1.32,2.52.18,1.94-1.14h0Z"/><path class="cls-2" d="m140.43,105.51c-1.1.2-2.15.62-3.04,1.31-1.26.99-1.91,2.5-2.05,4.06-.23,2.53,1.18,5.01,3.5,6.06s4.79.75,6.68-.84c2.05-1.73,2.6-4.84,1.51-7.25-.4-.88-1.03-1.7-1.78-2.29-1.42-1.13-3.06-1.38-4.82-1.06-.6.11-.94.84-.79,1.38.17.63.78.9,1.38.79.91-.17,1.89-.07,2.71.55-.14-.11.15.13.14.12.08.08.17.15.25.23s.15.16.22.24c.02.02.23.28.08.09.2.26.37.53.52.82.04.09.08.18.13.26.1.17-.13-.2-.07-.18.01,0,.09.24.09.25.18.52.23.88.24,1.37,0,.91-.27,1.86-.89,2.59s-1.2,1.03-2.04,1.22c-.09.02-.18.04-.26.05-.2.04.26-.01-.07,0-.21.01-.43.03-.64.02-.43-.01-.55-.03-1.07-.18-.1-.03-.2-.07-.3-.1-.32-.12.19.1-.13-.05-.19-.09-.38-.19-.56-.3-.09-.06-.18-.12-.27-.18-.28-.2.15.14-.11-.08-.16-.14-.32-.29-.46-.44-.23-.25-.4-.5-.62-.94-.16-.32.06.19-.06-.14-.03-.07-.05-.14-.07-.21-.07-.23-.13-.46-.17-.7-.16-1.18.16-2.5,1.05-3.3.69-.62,1.47-.84,2.38-1.01.6-.11.94-.83.79-1.38-.17-.63-.78-.9-1.38-.79Z"/><path class="cls-2" d="m163.56,177.91c4.76.57,9.56.58,14.32.03.6-.07,1.12-.47,1.12-1.12,0-.55-.52-1.2-1.12-1.12-4.76.55-9.56.55-14.32-.03-.6-.07-1.12.57-1.12,1.12,0,.67.52,1.05,1.12,1.12h0Z"/><path class="cls-2" d="m111.42,120.11c-3.98-.66-8.05.74-10.56,3.96s-3.02,7.39-3.12,11.32c-.11,4.14-.22,8.62,3.12,11.62s7.98,3.43,12.31,3.7c1.45.09,1.44-2.16,0-2.25-3.63-.22-7.67-.45-10.57-2.92s-2.68-6.27-2.61-9.76c.07-3.2.33-6.62,2.02-9.42,1.82-3.01,5.35-4.66,8.83-4.08,1.42.23,2.03-1.93.6-2.17h0Z"/><path class="cls-2" d="m240.08,118.83c3.05-.86,5.61,1.72,6.65,4.34,1.16,2.89,1.66,6.42,1.81,9.51.16,3.25-.64,5.95-3.09,8.15-2.15,1.92-4.59,3.29-7.53,3.27-1.45-.01-1.45,2.24,0,2.25,3.55.03,6.53-1.61,9.12-3.93,3-2.68,4.01-6.25,3.72-10.21-.15-2.07-.51-4.15-.92-6.19-.37-1.87-.9-3.76-1.88-5.41-1.72-2.89-5.09-4.91-8.49-3.95-1.39.39-.8,2.57.6,2.17h0Z"/><path class="cls-2" d="m178.8,29.9c-5.96-2.01-12.57-2.05-18.52,0s-10.42,5.7-14.51,9.97c-8.88,9.26-15.47,20.48-21.54,31.7-6.67,12.35-13.25,24.77-19.67,37.24-3.12,6.06-6.11,12.2-8.63,18.54s-4.36,12.62-4.79,19.27c-.77,11.99,4.54,25.24,16.44,29.77,1.35.52,1.94-1.66.6-2.17-9.91-3.77-14.83-14.78-14.87-24.82-.06-13.1,6.21-25.66,11.99-37.09,6.03-11.92,12.4-23.67,18.66-35.47,5.73-10.79,11.68-21.61,19.53-31.03,4.13-4.96,8.79-9.77,14.67-12.63,6.23-3.02,13.52-3.33,20.05-1.12,1.37.46,1.96-1.71.6-2.17h0Z"/><path class="cls-2" d="m192.66,38.57c6.63-2.62,11.79,3.74,14.46,8.93,3.24,6.32,5.79,12.99,8.27,19.64,4.44,11.87,8.26,24.23,16.59,34.06,4.12,4.86,9.1,8.91,14.6,12.1,1.25.73,2.39-1.22,1.14-1.94-10.4-6.03-18.16-15.16-22.97-26.13-5.77-13.14-9.34-27.32-16.27-39.96-1.65-3-3.76-5.88-6.73-7.69s-6.49-2.44-9.69-1.18c-1.33.53-.75,2.7.6,2.17h0Z"/><path class="cls-2" d="m192.16,9.45c5.04,0,10.17-.18,15.12.89s9.12,3.5,13.15,6.2,7.9,6.01,10.78,10.03c1.36,1.89,2.56,3.89,3.73,5.91,1.27,2.19,2.59,4.37,3.65,6.68,2.16,4.73,3.55,9.84,4.9,14.84s2.55,10.16,3.68,15.28c2.28,10.31,4.36,20.67,7.28,30.82,1.61,5.59,3.13,11.23,4.85,16.79,2.48,8.03,5.35,15.87,7.24,24.08,2.02,8.79,3.48,17.92,3.04,26.97-.25,5.26-1.52,10.21-3.91,14.89-3.51,6.88-9.15,12.65-16.4,15.54s-15.48,2.84-22.97.68c-.8-.23-1.6-.49-2.38-.77-1.36-.49-1.95,1.68-.6,2.17,6.05,2.19,12.72,2.95,19.1,2.05,8.93-1.27,16.77-6.18,22.07-13.43,3.05-4.17,5.44-9.19,6.52-14.27,1.71-8.06.86-16.65-.4-24.7-1.6-10.19-4.53-19.99-7.81-29.75-1.54-4.58-2.78-9.23-4.12-13.86-1.45-5-2.94-9.98-4.2-15.03s-2.46-10.52-3.6-15.79c-2.32-10.66-4.54-21.41-8.04-31.77-1.67-4.95-4.06-9.4-6.72-13.88s-5.46-8.19-9.27-11.45-7.97-5.9-12.4-8.1-9.53-3.02-14.57-3.21c-2.57-.09-5.14-.06-7.71-.07-1.45,0-1.45,2.25,0,2.25h0Z"/><path class="cls-2" d="m182.87,8.27v.02c.47-.46.93-.92,1.39-1.38.19.03.36.28.23.09-.08-.12-.27-.23-.38-.32-.38-.32-.76-.65-1.15-.96-1.15-.92-2.33-1.81-3.61-2.55-2.68-1.55-5.85-2.27-8.88-2.72-6.53-.96-13.24-.31-19.55,1.56s-12.48,5.14-17.51,9.8-9.3,9.87-13.46,15.16c-13.14,16.71-23.99,35.35-32.67,54.74-6.83,15.27-13.44,30.9-17.35,47.2-1.24,5.16-2.24,10.43-2.65,15.73-.74,9.56-.3,19.63,2.68,28.8,1.8,5.55,4.71,10.55,8.89,14.64,2.63,2.57,5.83,4.59,9.07,6.29,2.89,1.52,6.12,2.34,9.28,3.11,5.52,1.35,11.14,2.28,16.78,2.97,3.65.45,7.3.77,10.97.99,1.45.09,1.44-2.16,0-2.25-10.93-.66-22.24-1.98-32.69-5.43-3.58-1.18-7.07-3.32-10.14-5.75.14.11-.22-.18-.28-.24-.69-.59-1.35-1.22-1.99-1.88-2.05-2.11-3.83-4.46-5.21-7.05-4.83-9.04-5.67-20.04-5.33-30.11.08-2.41.24-4.83.53-7.22.03-.25-.09.61,0,.05.05-.35.1-.7.15-1.04.11-.72.22-1.44.33-2.17.26-1.57.54-3.14.86-4.7,3.37-16.47,10.19-32.48,16.66-47.64,7.31-17.1,16.5-33.57,27.22-48.75,3.79-5.36,7.8-10.56,12.1-15.53s8.98-10.28,14.87-13.6,12.43-5.26,19.05-5.77c6.07-.47,13.19.01,18.37,3.51.96.65,1.86,1.36,2.74,2.1.38.32.95,1.02,1.47,1.1.76.11,1.71-.48,1.38-1.38v-.02c-.5-1.35-2.67-.77-2.18.6h0Z"/><path class="cls-2" d="m138.92,195.07c3.88,11.86,4.95,27.97-4.12,37.87-2.62,2.85-5.94,4.87-9.6,6.09-1.37.45-.78,2.63.6,2.17,6.86-2.28,12.28-7.14,15.18-13.78s3.42-13.97,2.66-21.03c-.43-4.05-1.28-8.04-2.55-11.91-.45-1.37-2.62-.78-2.17.6h0Z"/><path class="cls-2" d="m200.3,198.85c-2.78,10.38-2.72,22.47,4.64,31.03,2.2,2.56,4.96,4.59,7.94,6.15,1.28.67,2.42-1.27,1.14-1.94-6.12-3.18-10.51-8.42-12.25-15.12s-.99-13.19.7-19.51c.37-1.4-1.79-2-2.17-.6h0Z"/><path class="cls-2" d="m106.13,242.71c-14.05,5.1-29.21,6.08-43.74,9.26-13.87,3.04-28.06,8.29-36.39,20.5-1.33,1.94-1.56,4.64-2.19,6.9-.7,2.5-1.45,4.97-2.23,7.45-1.52,4.86-3.11,9.71-4.39,14.65-.67,2.59-1.25,5.2-1.7,7.83-.16.91-.2,1.67-.68,2.46s-1.06,1.47-1.38,2.31c-.87,2.32-1.28,4.95-1.86,7.36-.65,2.72-1.28,5.44-1.87,8.18-4.64,21.42-7.34,43.22-8.65,65.09-.65,10.91-.97,21.83-1.04,32.76-.03,5.44,0,10.89.06,16.33.07,4.99-.07,9.89,1.23,14.75.57,2.15,1.26,4.27,1.73,6.44.31,1.41,2.48.82,2.17-.6-.98-4.51-2.66-8.7-2.76-13.37-.11-5.29-.18-10.59-.2-15.88-.04-10.78.14-21.55.62-32.32.97-21.54,3.2-43.03,7.28-64.21,1.04-5.39,2.19-10.76,3.47-16.1.31-1.29.62-2.57.94-3.85.3-1.21.48-2.61.94-3.77.28-.72.84-1.34,1.24-2,.51-.84.68-1.58.83-2.54,1.65-10.03,5.29-19.55,8.08-29.28.34-1.19.67-2.39.98-3.59s.48-2.67,1.21-3.75c.98-1.45,2.06-2.81,3.24-4.1,2.32-2.53,4.97-4.71,7.86-6.55,5.97-3.8,12.72-6.15,19.54-7.88,14.32-3.65,29.22-4.6,43.43-8.75,1.62-.47,3.22-.99,4.8-1.57,1.35-.49.77-2.66-.6-2.17h0Z"/><path class="cls-2" d="m223.93,236.13c6.65,2.47,13.61,4.07,20.53,5.57,8.17,1.77,16.39,3.26,24.62,4.75,7.42,1.34,14.84,2.62,22.22,4.17,4.09.86,8.07,1.83,11.83,3.7,2.21,1.1,4.33,2.41,6.45,3.67,2.01,1.19,4.01,2.46,5.69,4.11,3.28,3.24,5.35,7.63,6.94,11.9s2.87,8.91,4.14,13.41c3.01,10.64,5.64,21.39,7.88,32.22,4.46,21.56,7.38,43.42,8.72,65.4s1.07,44.99-.61,67.41c-.21,2.8-.44,5.59-.69,8.38-.13,1.44,2.12,1.43,2.25,0,2.04-22.79,2.71-45.72,1.68-68.59-1-22.27-3.63-44.47-7.82-66.37-2.09-10.94-4.58-21.8-7.46-32.56-1.34-5-2.73-10-4.26-14.95-1.34-4.35-2.9-8.71-5.24-12.64s-5.57-6.94-9.56-9.34c-4.3-2.59-8.63-5.14-13.48-6.55-3.33-.97-6.79-1.57-10.19-2.24-3.79-.74-7.58-1.43-11.38-2.12-8.27-1.5-16.55-2.96-24.8-4.61-7.58-1.52-15.18-3.13-22.56-5.43-1.44-.45-2.88-.93-4.29-1.46s-1.95,1.67-.6,2.17h0Z"/><path class="cls-2" d="m198.03,104.77c6.91-2.27,14.4-1.68,20.41,2.6,1.18.84,2.31-1.11,1.14-1.94-6.45-4.6-14.72-5.26-22.15-2.83-1.37.45-.78,2.62.6,2.17h0Z"/><path class="cls-2" d="m141.03,102.6c-6.03-1.95-13.12-.57-18.63,2.26-1.29.66-.15,2.6,1.14,1.94,4.99-2.56,11.44-3.79,16.89-2.03,1.38.45,1.97-1.73.6-2.17h0Z"/><path class="cls-2" d="m170.57,121.59c.4,3.52.5,7.07.25,10.61-.19,2.7-.72,5.24-1.28,7.87-.44,2.08-1.01,4.44-.46,6.55s1.8,3.37,3.45,4.81c1.08.95,2.68-.63,1.59-1.59-1.46-1.28-2.72-2.28-2.98-4.35s.47-4.43.93-6.46c1.28-5.71,1.42-11.64.75-17.45-.16-1.42-2.41-1.44-2.25,0h0Z"/><path class="cls-2" d="m178.87,150.76h2.06c.29,0,.59-.13.8-.33s.34-.52.33-.8-.11-.59-.33-.8-.49-.33-.8-.33h-2.06c-.29,0-.59.13-.8.33s-.34.52-.33.8.11.59.33.8.49.33.8.33h0Z"/><path class="cls-2" d="m162.36,151.18h2.48c.29,0,.59-.13.8-.33s.34-.52.33-.8-.11-.59-.33-.8-.49-.33-.8-.33h-2.48c-.29,0-.59.13-.8.33s-.34.52-.33.8.11.59.33.8.49.33.8.33h0Z"/><path class="cls-2" d="m103.31,186.78c8.8,7.31,20.34,10.94,31.75,9.85,1.43-.14,1.44-2.39,0-2.25-10.79,1.03-21.8-2.25-30.16-9.19-1.11-.92-2.71.66-1.59,1.59h0Z"/><path class="cls-2" d="m243.06,175.92c-.46,5.86-4.62,10.76-9.58,13.57-5.99,3.4-13.11,4-19.86,4.11-1.45.02-1.45,2.27,0,2.25,7.38-.12,15.2-.86,21.64-4.79,5.39-3.29,9.55-8.71,10.06-15.14.11-1.44-2.14-1.44-2.25,0h0Z"/><path class="cls-2" d="m186.28,31.7c-.19-5.48-3.49-10.3-8.02-13.21-5.23-3.37-11.79-3.94-17.84-3.33-1.43.15-1.44,2.4,0,2.25,5.44-.56,11.25-.18,16.08,2.64,4.15,2.43,7.36,6.74,7.53,11.65.05,1.44,2.3,1.45,2.25,0h0Z"/><path class="cls-2" d="m194.32,31.79c8.63-3.17,19.36,1.31,22.84,9.93.54,1.33,2.71.75,2.17-.6-3.92-9.69-15.72-15.13-25.61-11.5-1.35.49-.77,2.67.6,2.17h0Z"/><path class="cls-2" d="m174.74,32.97c-4.59-2.6-10.01-3.39-15.15-2.24-1.41.31-.81,2.48.6,2.17,4.55-1.01,9.36-.27,13.41,2.02,1.26.71,2.4-1.23,1.14-1.94h0Z"/><path class="cls-2" d="m167.58,34.25c-5.32-1.25-10.88-1.11-16.12.44-1.39.41-.8,2.58.6,2.17,4.86-1.43,9.99-1.6,14.93-.44,1.41.33,2.01-1.84.6-2.17h0Z"/><path class="cls-2" d="m276.11,434.77c-21.38,3.75-42.88,6.73-64.54,8.25-9.68.68-19.37,1.09-29.07,1.35s-19.35.65-29,.42c-8.09-.19-16.24-.81-24.25-1.96-3.27-.47-6.61-.97-9.73-2.08-5.2-1.85-10.03-4.74-14.26-8.27-8.6-7.18-14.68-16.86-19.2-27.01-2.28-5.12-4.01-10.48-6.44-15.54s-5.87-9.41-10.19-13.15c-4.73-4.11-9.64-8.03-14.46-12.02-2.29-1.9-4.52-3.91-6.9-5.68-1.82-1.36-4.01-2.1-6.21-1.2-3.66,1.51-5.51,6.35-4.29,10.01,1.3,3.9,4.59,7.32,7.51,10.09,1.36,1.29,2.8,2.53,4.38,3.57,1.21.8,2.34-1.15,1.14-1.94-3.41-2.25-6.5-5.46-8.86-8.78-1.08-1.52-2.23-3.24-2.28-5.16s.83-4.07,2.41-5.23c2.15-1.59,4.24-.12,6,1.33,2.41,2,4.82,4,7.24,6,4.7,3.89,9.56,7.66,14.06,11.77,4.19,3.83,7.14,8.31,9.41,13.48s3.95,10.18,6.25,15.15c4.51,9.72,10.55,18.98,18.84,25.9,4.01,3.35,8.46,6.12,13.3,8.1,3.2,1.31,6.5,2.02,9.9,2.56,7.99,1.26,16.11,1.91,24.2,2.23,9.04.35,18.14-.03,27.18-.24,9.52-.22,19.04-.56,28.54-1.14,20.4-1.25,40.69-3.77,60.85-7.09,3.03-.5,6.06-1.02,9.08-1.55,1.42-.25.82-2.42-.6-2.17h0Z"/><path class="cls-2" d="m74.83,401.5c-3.81-3.6-7.62-7.2-11.42-10.8l-5.71-5.4c-1.69-1.59-3.35-3.25-5.26-4.58-3.82-2.65-8.4-2.96-12.9-3.01-5.11-.06-10.21-.1-15.32-.15-2.26-.02-4.53-.04-6.79-.07-1.85-.02-3.74-.15-5.59.08-1.45.18-2.98.66-3.86,1.93s-.66,2.81-.54,4.21c.3,3.6,3.91,5.69,7.13,6.39,2.03.45,3.97.22,6.02.1s4.16-.13,6.25-.06c2.44.08,4.89.26,7.31.62,2.12.31,4.38.65,6.27,1.71,3.89,2.18,5.99,6.52,7.82,10.38.62,1.31,2.56.17,1.94-1.14-1.54-3.26-3.24-6.61-5.89-9.14s-5.97-3.46-9.55-3.99c-3.87-.58-7.8-.8-11.71-.73s-7.77.95-11.25-1.31c-1.33-.86-2.05-1.9-2.13-3.47-.07-1.43-.2-2.56,1.38-3.07,1.45-.47,3.1-.31,4.6-.29,2.15.02,4.29.04,6.44.06,4.71.05,9.42.09,14.14.14,4.29.04,9.06-.33,13.05,1.54,2.3,1.08,4.14,2.86,5.96,4.58,1.96,1.86,3.93,3.71,5.89,5.57,4.05,3.83,8.09,7.65,12.14,11.48,1.05.99,2.65-.59,1.59-1.59h0Z"/><path class="cls-2" d="m57.27,403.61c-7.2-2.65-14.77-4.19-22.43-4.58s-15.34.16-22.54,2.23c-2.5.72-5.37,2.06-6.47,4.58-1.16,2.68.36,5.48,2.82,6.75,3.4,1.75,7.16.35,10.66-.27s7.01-.65,10.49-.32c8.01.76,15.81,3.61,22.67,7.74,1.24.75,2.38-1.2,1.14-1.94-11-6.62-24.33-10.01-37.03-7.21-2.69.59-7.42,1.54-8.75-1.87-1.08-2.76,2.53-4.49,4.57-5.14,3.26-1.04,6.8-1.56,10.19-1.94s6.94-.53,10.42-.43c8.08.22,16.06,1.79,23.65,4.57,1.36.5,1.95-1.67.6-2.17h0Z"/><path class="cls-2" d="m55.8,417.84c-7.55-.57-15.12-.83-22.7-.76-3.79.04-7.57.15-11.35.35-1.81.1-3.62.21-5.42.34-1.44.11-3.43-.25-4.14,1.23-1.05,2.2-.42,4.85.92,6.77,1.61,2.32,4.04,3.69,6.79,4.2,3.27.61,6.59.18,9.89.12s6.64.15,9.91.68c7.46,1.21,14.61,3.89,21.02,7.89,1.23.77,2.36-1.18,1.14-1.94-6.32-3.93-13.37-6.67-20.7-7.97-3.6-.64-7.27-.96-10.93-.91s-7.58.72-11.19-.38c-3-.92-6.38-4.41-4.69-7.75l-.97.56c14.11-1.18,28.3-1.24,42.42-.17,1.44.11,1.44-2.14,0-2.25h0Z"/><path class="cls-2" d="m60.61,439.23c8.06,14.22,22.27,23.55,37.18,29.37,13.96,5.45,28.6,9.59,43.19,12.96,15.98,3.7,32.2,6.7,48.48,8.74,17.42,2.18,34.93,3.68,52.47,4.4,8.3.34,16.6.51,24.9.72,10.49.26,20.99.44,31.47-.17,2.56-.15,5.11-.35,7.65-.6,1.43-.14,1.44-2.39,0-2.25-19.33,1.9-38.92.88-58.29.26-16.47-.53-32.92-1.72-49.3-3.55-16.92-1.89-33.7-4.7-50.35-8.28-14.46-3.11-28.82-7.03-42.79-11.89-14.96-5.19-29.71-12.6-39.33-25.66-1.22-1.66-2.34-3.39-3.36-5.19-.71-1.26-2.66-.13-1.94,1.14h0Z"/><path class="cls-2" d="m47.79,276.38c6.4,10.13,8.82,22.03,10.01,33.8,1.3,12.95,1.76,26,2.54,38.99.47,7.81.94,15.61,1.41,23.42.09,1.44,2.34,1.45,2.25,0-.85-14.12-1.7-28.24-2.54-42.36-.74-12.25-1.14-24.69-4.12-36.65-1.61-6.45-4.04-12.7-7.6-18.33-.77-1.22-2.72-.09-1.94,1.14h0Z"/><path class="cls-2" d="m40.51,291.7c5.75,6.59,11.49,13.19,17.24,19.78.95,1.09,2.54-.5,1.59-1.59-5.75-6.59-11.49-13.19-17.24-19.78-.95-1.09-2.54.5-1.59,1.59h0Z"/><path class="cls-2" d="m304.79,266.63c-10.87,12.71-13.65,29.72-14.88,45.87-.71,9.33-1,18.72-2.46,27.97-1.3,8.23-3.36,16.34-5.73,24.32-2.68,9.02-5.8,17.91-9.19,26.68-.52,1.35,1.65,1.94,2.17.6,5.93-15.34,11.27-31.13,14.28-47.33,3.23-17.38,1.92-35.34,6.02-52.57,2.06-8.67,5.53-17.13,11.37-23.96.94-1.09-.65-2.69-1.59-1.59h0Z"/><path class="cls-2" d="m232.61,443.13c3.14-.94,6.05-2.41,8.88-4.04s5.7-3.16,8.45-4.87c2.49-1.55,4.86-3.39,6.78-5.62,2.09-2.44,3.29-5.26,4.68-8.12,3.11-6.44,6.51-12.74,9.25-19.36,2.22-5.39,4.65-10.71,7.92-15.55,3.58-5.29,8.27-9.95,14.29-12.35,1.33-.53.75-2.71-.6-2.17-10.76,4.29-17.19,14.48-21.73,24.64-1.31,2.94-2.47,5.95-3.82,8.87-1.51,3.28-3.13,6.5-4.75,9.72s-2.96,6.41-4.62,9.5c-1.43,2.66-3.54,4.89-5.93,6.72-2.85,2.18-6.11,3.75-9.19,5.56-3.27,1.93-6.55,3.81-10.2,4.9-1.38.42-.79,2.59.6,2.17h0Z"/><path class="cls-2" d="m276.78,404.3c3-7.35,6.33-14.59,10.93-21.09,1.62-2.29,3.34-4.51,4.98-6.78,1.97-2.74,3.77-5.61,6.06-8.11.57-.63,1.21-1.47,2.13-1.47,1.1,0,2.67,1.03,3.43,1.79,1.7,1.69.77,4.85.18,6.83-.42,1.39,1.75,1.98,2.17.6.66-2.18,1.22-4.71.49-6.95s-2.97-3.7-5.09-4.31-3.63.53-5,2.04-2.65,3.23-3.85,4.93c-3.77,5.35-7.93,10.48-11.19,16.16-2.89,5.04-5.21,10.39-7.41,15.77-.55,1.34,1.63,1.92,2.17.6h0Z"/><path class="cls-2" d="m279.21,411.38c3.47-5.79,6.72-11.81,10.57-17.35,1.87-2.69,3.99-5.19,5.85-7.88s3.64-5.36,5.95-7.61c.38-.37.99-1.13,1.51-1.3.57-.18,1.4.46,1.88.74,1.01.58,1.31,1.41,1.25,2.53-.11,2.18-1.13,4.38-2.13,6.28-.78,1.47-1.76,3.43-3.16,4.39-.19.13.19.03-.31,0-.63-.04-1.25.09-1.83.33-1.3.52-2.38,1.49-3.33,2.49-2.42,2.54-4.22,5.53-5.94,8.57-2.18,3.83-4.29,7.69-6.44,11.53-.71,1.27,1.24,2.4,1.94,1.14,2.09-3.75,4.16-7.51,6.28-11.25,1.68-2.96,3.39-5.91,5.75-8.4,1.02-1.07,2.13-2.14,3.67-2.14.81,0,1.35-.26,1.96-.8,1.6-1.4,2.74-3.48,3.68-5.36,1.06-2.14,2.09-4.57,2.12-7,.04-2.74-2.17-4.96-4.88-5.31-1.44-.19-2.52.92-3.49,1.85-1.21,1.16-2.27,2.46-3.28,3.78-2.12,2.78-3.95,5.78-6.12,8.52-5.18,6.55-9.17,13.96-13.46,21.11-.75,1.25,1.2,2.38,1.94,1.14h0Z"/><path class="cls-2" d="m284.45,428.23c1.93-2.68,4.04-5.23,5.82-8.01,1.38-2.15,2.5-4.66,4.56-6.27,1.1-.86,2.34-1.1,3.67-1.4,1.59-.36,3.16-.76,4.79-.92,3.56-.36,7.13-.68,10.69-1.03,1.43-.14,1.44-2.39,0-2.25-3.8.36-7.61.66-11.4,1.1-1.66.19-3.27.62-4.89.98-1.44.32-2.75.67-3.96,1.55-2.14,1.55-3.45,3.9-4.79,6.13-1.91,3.16-4.28,6-6.43,8.99-.85,1.18,1.1,2.3,1.94,1.14h0Z"/><path class="cls-2" d="m295.52,413.34c1.87-3.35,4.15-6.5,5.81-9.96,1.47-3.05,2.02-6.24,1.74-9.61-.12-1.43-2.37-1.45-2.25,0,.27,3.15-.22,6.08-1.64,8.91-1.66,3.29-3.8,6.32-5.6,9.53-.71,1.26,1.23,2.4,1.94,1.14h0Z"/><path class="cls-2" d="m295.69,497.91c1.12,16.56.87,33.62,5.08,49.79.93,3.59,2.13,7.12,3.68,10.49,1.79,3.89,3.73,7.7,5.25,11.72,2.35,6.23,5.16,14.98-.3,20.39-2.21,2.19-5.16,3.39-8.12,4.17-4.1,1.08-8.32,1.66-12.55,1.89-8.59.47-17.21-.39-25.69-1.73-17.94-2.83-35.32-7.92-52.69-13.11s-35.08-10.47-53.22-12.93c-2.24-.3-4.48-.57-6.72-.78-1.44-.14-1.43,2.11,0,2.25,18.76,1.82,36.96,6.97,54.96,12.32s35.52,10.74,53.85,13.89c8.49,1.46,17.1,2.55,25.74,2.46,4.27-.04,8.54-.39,12.74-1.16,3.5-.64,7.09-1.5,10.19-3.32,2.47-1.45,4.59-3.54,5.77-6.18,1.44-3.24,1.26-6.7.67-10.12-.75-4.33-2.28-8.47-4.01-12.48-1.64-3.79-3.64-7.44-5.12-11.3-2.9-7.55-4.24-15.62-5.09-23.62-.92-8.67-1.27-17.39-1.75-26.1-.12-2.18-.25-4.37-.4-6.55-.1-1.44-2.35-1.45-2.25,0h0Z"/><path class="cls-2" d="m197.24,563.28c-20.9.61-42.08,1.94-62.41,7.17-9.67,2.49-19.09,5.84-28.26,9.8-4.58,1.98-9.05,4.19-13.7,6.03s-9.18,3.32-13.92,4.5-9.46,1.98-14.28,2.36c-4.46.35-8.89.24-13.36.02-3.28-.16-6.57-.32-9.79-.96-2.82-.57-6.21-1.49-7.99-3.95-2.2-3.04-1.84-7.55-1.27-11.04s1.56-6.91,2.75-10.23c1.77-4.93,4.13-9.63,6.23-14.43,2.59-5.93,4.88-11.99,6.43-18.29,1.97-7.99,2.8-16.25,2.61-24.48-.05-2.38-.2-4.76-.4-7.14-.12-1.43-2.38-1.44-2.25,0,.77,8.92.53,17.93-1.18,26.73-1.31,6.72-3.45,13.24-6.09,19.55-2.14,5.14-4.64,10.12-6.7,15.29-1.13,2.84-2.07,5.76-2.81,8.73-.95,3.85-1.62,7.95-.97,11.9.55,3.33,2.29,6,5.29,7.59s6.44,2.16,9.78,2.52c8.18.9,16.56.99,24.72-.12,9.69-1.32,19.06-4.26,28.01-8.14,4.75-2.06,9.4-4.31,14.2-6.25s9.5-3.65,14.35-5.19c20.37-6.44,41.7-8.57,62.96-9.45,2.68-.11,5.36-.2,8.04-.28,1.44-.04,1.45-2.29,0-2.25h0Z"/><path class="cls-2" d="m300.91,595.42c.08,18.41.39,36.82.71,55.23.33,18.96.69,37.93.88,56.89s.23,38.53-.1,57.78c-.32,18.96-.99,37.93-2.23,56.85-1.21,18.5-2.96,36.98-5.56,55.35-.31,2.22-.64,4.44-.98,6.66-.22,1.42,1.95,2.03,2.17.6,2.77-18.1,4.7-36.32,6.06-54.57,1.42-19.03,2.21-38.11,2.64-57.18.43-19.25.47-38.51.32-57.77-.15-19.19-.48-38.38-.82-57.58-.33-18.51-.66-37.03-.79-55.54-.02-2.24-.03-4.48-.04-6.72,0-1.45-2.26-1.45-2.25,0h0Z"/><path class="cls-2" d="m44.62,594.54c-1.18,21.57-1.58,43.16-1.81,64.76-.22,20.52-.46,41.03-1.37,61.53-.81,18.21-1.27,36.44-1.58,54.66s-.46,37.98-.42,56.97c.03,15.78.17,31.56.61,47.34.04,1.57.09,3.13.14,4.7.05,1.44,2.3,1.45,2.25,0-.5-15.18-.66-30.37-.73-45.55-.09-18.82.02-37.63.29-56.45.27-18.53.69-37.05,1.43-55.57.8-20.11,1.34-40.19,1.56-60.32s.46-42.19,1.44-63.27c.14-2.94.29-5.87.45-8.81.08-1.45-2.17-1.44-2.25,0h0Z"/><path class="cls-2" d="m65.41,446.41c-9.28,2.43-17.66,7.88-23.59,15.42-.89,1.13.7,2.73,1.59,1.59,5.71-7.26,13.66-12.5,22.6-14.84,1.4-.37.81-2.54-.6-2.17h0Z"/><path class="cls-2" d="m70.85,452.23c-6.25,4.01-10.51,10.14-14.24,16.43-1.94,3.27-3.8,6.57-5.91,9.73-2.24,3.34-4.59,6.59-6.77,9.97-2.41,3.74-4.58,7.65-6.05,11.86-.48,1.37,1.7,1.96,2.17.6,2.55-7.3,7.32-13.55,11.63-19.88,4.07-5.96,7.23-12.51,11.54-18.3,2.44-3.28,5.31-6.25,8.77-8.47,1.22-.78.09-2.73-1.14-1.94h0Z"/><path class="cls-2" d="m293.3,300.33c2.22-1.66,4.99-2.81,7.5-3.97,3.3-1.53,6.79-3.11,10.41-3.71,1.43-.24.82-2.4-.6-2.17-3.72.62-7.33,2.27-10.73,3.83-1.67.77-3.32,1.58-4.94,2.44-.94.5-1.92.99-2.77,1.63-1.15.86-.03,2.81,1.14,1.94h0Z"/><path class="cls-2" d="m145.85,651.13c15.35-8.43,33.42-8.25,50.35-6.31,5,.57,9.98,1.31,14.95,2.08,1.42.22,2.03-1.95.6-2.17-17.47-2.7-35.83-5.39-53.26-.95-4.8,1.22-9.44,3.03-13.78,5.41-1.27.7-.14,2.64,1.14,1.94h0Z"/><path class="cls-2" d="m176.71,643.16c5.63,11.51,9.4,23.91,12.48,36.31,3.32,13.42,5.76,27.07,7.5,40.78.88,6.92,1.57,13.87,2.04,20.84.1,1.44,2.35,1.45,2.25,0-.88-13.06-2.52-26.09-4.77-38.98-2.38-13.67-5.45-27.28-9.77-40.48-2.18-6.68-4.7-13.27-7.79-19.6-.64-1.3-2.58-.16-1.94,1.14h0Z"/><path class="cls-2" d="m174.1,643.32c-6.11,12.78-10.8,26.2-14.57,39.84-4.09,14.76-7.12,29.8-9.55,44.92-2.56,15.92-4.43,31.95-5.94,48.01s-2.65,32.47-3.64,48.73-1.79,31.71-2.73,47.56c-.11,1.9-.23,3.81-.34,5.71-.09,1.45,2.16,1.44,2.25,0,.95-15.6,1.76-31.21,2.68-46.82.95-16.17,2.01-32.33,3.42-48.47s3.14-32.11,5.52-48.06,5.12-30.35,8.95-45.24c3.55-13.79,7.94-27.43,13.75-40.44.69-1.55,1.4-3.08,2.13-4.61.62-1.3-1.32-2.44-1.94-1.14h0Z"/><path class="cls-2" d="m160.86,580.28c.47,15.93.68,31.87,1.7,47.78.31,4.85.69,9.69,1.16,14.52.14,1.43,2.39,1.44,2.25,0-1.6-16.5-2.12-33.07-2.53-49.64-.1-4.22-.21-8.44-.33-12.66-.04-1.44-2.29-1.45-2.25,0h0Z"/><path class="cls-2" d="m180.69,590.89c.63,16.95,1.26,33.89,1.9,50.84.05,1.44,2.3,1.45,2.25,0-.63-16.95-1.26-33.89-1.9-50.84-.05-1.44-2.3-1.45-2.25,0h0Z"/><path class="cls-2" d="m171.45,644.44c-12.98,6.37-24.9,14.76-35.3,24.81-1.04,1.01.55,2.6,1.59,1.59,10.26-9.92,22.03-18.17,34.84-24.46,1.3-.64.16-2.58-1.14-1.94h0Z"/><path class="cls-2" d="m201.37,877.76c.65-18.49,1.03-36.98,1.12-55.48.09-18.5-.1-36.99-.57-55.48-.27-10.45-.63-20.89-1.07-31.33-.06-1.44-2.31-1.45-2.25,0,.79,18.48,1.3,36.97,1.53,55.47s.17,36.99-.16,55.49c-.19,10.45-.47,20.9-.84,31.34-.05,1.45,2.2,1.45,2.25,0h0Z"/><path class="cls-2" d="m151.35,580.14c16.44.36,32.88.53,49.32.82,1.45.03,1.45-2.22,0-2.25-16.44-.29-32.88-.45-49.32-.82-1.45-.03-1.45,2.22,0,2.25h0Z"/><path class="cls-2" d="m115.99,578.95c7.46.41,14.93.78,22.4.99,1.45.04,1.45-2.21,0-2.25-7.47-.21-14.93-.58-22.4-.99-1.45-.08-1.44,2.17,0,2.25h0Z"/><path class="cls-2" d="m139.05,570.03c-.71,3.89-1.06,7.83-1.04,11.78,0,.66.52,1.05,1.12,1.12,2.17.25,4.34.43,6.52.5,1.05.04,2.09.06,3.14.05s1.91-.39,2.09-1.54c.31-2.08.38-4.23.56-6.33s.38-4.35.57-6.53c.13-1.44-2.13-1.43-2.25,0-.33,3.79-.66,7.58-.99,11.36-.02.22-.04.44-.06.65-.01.13-.02.26-.03.39-.05.3.07.21.37-.26-.03-.07-1.18,0-1.31,0-.96,0-1.92-.03-2.88-.08-1.92-.09-3.83-.25-5.74-.47l1.12,1.12c-.02-3.75.29-7.49.96-11.18.11-.6-.16-1.21-.79-1.38-.55-.15-1.27.18-1.38.79h0Z"/><path class="cls-2" d="m313.4,462.15c-4.86-8.96-10.81-17.02-17.36-24.8-1.54-1.82-3.06-3.66-4.74-5.36-1.19-1.2-2.54-2.62-4.08-3.37-2.32-1.14-5.09-1.75-7.63-2.1-1.13-.15-2.38-.31-3.49.06-1.45.48-1.52,1.73-1.56,3.08-.15,4.86,1.5,9.56,3.61,13.87s4.58,8.22,6.97,12.27c1.88,3.18,3.75,6.37,5.63,9.55,5.79,9.82,11.02,19.85,15.14,30.5.52,1.34,2.69.76,2.17-.6-3.34-8.63-7.32-16.96-11.87-25.01-3.88-6.88-7.99-13.64-12-20.44-2.41-4.09-4.88-8.25-6.3-12.81-.7-2.23-1.13-4.54-1.11-6.89,0-.41-.11-1.17.07-1.54-.04.07-.06.16-.13.2.29-.16.85-.13,1.22-.12,2.49.06,5.08.81,7.41,1.66,1.19.43,2.07,1.17,3.01,2.02,1.67,1.5,3.16,3.19,4.62,4.9,3.41,4,6.8,8.01,9.87,12.29s6.03,9.03,8.62,13.8c.69,1.27,2.63.14,1.94-1.14h0Z"/><path class="cls-2" d="m287.65,424.47c4.89-.07,9.42,1.84,13.58,4.25s8.26,5.3,12.17,8.22c8.1,6.04,15.69,12.72,23.26,19.4,3.18,2.81,6.67,5.79,8.35,9.79s.9,8.05-1.69,11.3c-2.61,3.26-6.29,5.48-9.57,7.97-4.01,3.05-7.89,6.25-11.78,9.44-2.19,1.8-4.36,3.66-6.65,5.32-2.1,1.52-4.56,3.1-7.22,3.23-2.88.14-4.97-1.9-7.08-3.57-2.35-1.86-4.71-3.72-7.06-5.59-1.12-.89-2.73.69-1.59,1.59,2.29,1.81,4.58,3.62,6.87,5.43,1.91,1.51,3.82,3.36,6.2,4.07,4.7,1.39,9.28-1.8,12.77-4.56,4.43-3.49,8.72-7.15,13.14-10.66,3.83-3.04,8.1-5.68,11.66-9.04,2.94-2.78,5.14-6.34,5.16-10.49.02-4.58-2.46-8.48-5.51-11.69-3.57-3.75-7.69-7.04-11.6-10.43-4.18-3.62-8.41-7.18-12.76-10.58-4.69-3.66-9.52-7.19-14.6-10.29s-10.24-5.42-16.05-5.34c-1.45.02-1.45,2.27,0,2.25h0Z"/><path class="cls-2" d="m62.23,440.61c-11.66-.5-23.18,2.42-34.02,6.5-4.78,1.8-9.66,3.64-13.93,6.49-3.85,2.58-7.35,5.85-9.78,9.83-2.26,3.69-3.46,8-2.9,12.33.68,5.34,4.02,9.76,6.86,14.16,1.58,2.44,3.14,4.9,4.51,7.47.94,1.75,1.62,3.59,2.35,5.44,1.38,3.48,3.08,7.3,6.68,8.98,2.76,1.28,6.09.97,9.06,1.04s6.17.48,8.96-1.17c5.11-3.02,9.45-7.53,12.72-12.45.8-1.21-1.14-2.34-1.94-1.14-2.78,4.18-6.34,7.85-10.48,10.71-.97.67-1.98,1.4-3.13,1.71-1.35.36-2.85.18-4.23.14-2.67-.07-5.53.13-8.17-.32-4.03-.68-5.88-4.52-7.24-7.96-.64-1.61-1.22-3.24-1.96-4.8-1.07-2.24-2.38-4.37-3.7-6.47-1.43-2.27-2.92-4.5-4.33-6.77-1.32-2.13-2.63-4.27-3.3-6.7-1.11-4-.45-8.18,1.48-11.82,4.37-8.27,12.79-12.52,21.13-15.78,11.25-4.4,23.19-7.69,35.37-7.17,1.45.06,1.44-2.19,0-2.25h0Z"/><path class="cls-2" d="m200.18,489.22c-20.89,1-41.83,1.63-62.68,3.28s-41.14,4.3-61.81,5.04c-11.59.42-23.2.21-34.73-1.12-1.44-.16-1.42,2.09,0,2.25,20.52,2.36,41.2,1.14,61.7-.71,10.31-.93,20.6-2.02,30.91-2.89s20.78-1.4,31.18-1.9c11.81-.57,23.61-1.13,35.42-1.7,1.44-.07,1.45-2.32,0-2.25h0Z"/><path class="cls-2" d="m54,432.9c-8.1-.45-16.22.12-24.19,1.67-1.42.28-.82,2.45.6,2.17,7.77-1.51,15.69-2.03,23.59-1.59,1.45.08,1.44-2.17,0-2.25h0Z"/><path class="cls-2" d="m16.61,497.91c-.32-5.23,1.06-10.4,3.95-14.77.8-1.21-1.15-2.34-1.94-1.14-3.09,4.67-4.6,10.32-4.26,15.91.09,1.44,2.34,1.45,2.25,0h0Z"/><path class="cls-2" d="m123.53,234.47c-.01,14.12,6.05,27.64,16.54,37.06,5.2,4.67,11.18,8.35,16.56,12.79s10.74,9.7,15.64,15.04c2.17,2.36,4.3,4.83,5.36,7.91,1.26,3.67,1.85,7.64,2.54,11.45,1.43,7.89,2.56,15.82,3.37,23.8,1.61,15.87,2.08,31.83,2.15,47.78.08,18.01-.34,36.02-.2,54.04.01,1.45,2.26,1.45,2.25,0-.25-32,1.3-64.09-1.41-96.03-.68-8.02-1.63-16.02-2.91-23.97-.62-3.81-1.28-7.61-2.07-11.39-.72-3.44-1.41-6.94-3.3-9.96-1.71-2.73-4.03-5.08-6.22-7.42-2.44-2.6-4.97-5.13-7.58-7.56-5.34-4.96-11.15-9.15-16.97-13.5s-11.34-9.53-15.06-16.01c-4.19-7.3-6.44-15.61-6.44-24.02,0-1.45-2.25-1.45-2.25,0h0Z"/><path class="cls-2" d="m140.06,223.96c-5.74.19-12.2-1.43-17.4,1.78-1.37.85-2.44,1.97-3.54,3.13-1.21,1.28-2.54,2.45-3.89,3.58-2.72,2.28-5.66,4.45-7.88,7.25-2.04,2.56-2.67,5.84-3.01,9.02-.44,4.11-.5,8.25-.48,12.37.06,8.27.29,16.54.44,24.81s-.04,16.94,3.65,24.59c.33.68,1.28.69,1.77.23,5.99-5.65,11.98-11.31,18.37-16.51,3.17-2.58,6.43-5.09,9.86-7.32s7-4,11.08-3.69c1.44.11,1.44-2.14,0-2.25-3.99-.31-7.75,1.25-11.1,3.29-3.63,2.21-7.04,4.85-10.36,7.51-6.79,5.43-13.12,11.41-19.44,17.38l1.77.23c-3.15-6.51-3.16-13.91-3.29-20.99-.14-7.7-.29-15.41-.43-23.11-.07-3.91-.11-7.83.07-11.75.16-3.3.25-6.85,1.48-9.97s4.16-5.38,6.66-7.47,5.06-4.42,7.47-6.83c4.85-4.84,12.12-2.83,18.22-3.03,1.44-.05,1.45-2.3,0-2.25h0Z"/><path class="cls-2" d="m212.66,230.55c1.1,9.28,1.11,18.5-2.88,27.14-2.31,4.98-5.59,9.28-9.02,13.54-3.79,4.72-7.67,9.36-11.64,13.93-4.39,5.05-8.88,10.01-13.47,14.87-.99,1.05.59,2.65,1.59,1.59,8.42-8.92,16.5-18.15,24.21-27.69,3.62-4.48,7.27-8.96,9.82-14.16,1.87-3.83,3.23-7.87,3.85-12.09.83-5.69.47-11.45-.2-17.13-.17-1.42-2.42-1.44-2.25,0h0Z"/><path class="cls-2" d="m203.49,226.04c2.5-.17,5.01-.25,7.51-.04,2.3.2,4.84.63,6.75,2.01,2.5,1.81,3.98,5.09,5.54,7.67,1.67,2.76,3.29,5.54,4.84,8.36,3.18,5.82,6.01,11.84,8.02,18.17,2.08,6.56,3.31,13.35,5.43,19.9,2.29,7.07,5.33,13.9,9.03,20.34l.97-1.69c-8.25-.72-16.34-3.08-23.67-6.93s-13-9.5-20.65-12.05c-1.38-.46-1.97,1.71-.6,2.17,3.99,1.33,7.49,3.68,10.93,6.05s6.71,4.55,10.35,6.37c7.39,3.69,15.41,5.92,23.63,6.64.88.08,1.37-1,.97-1.69-3.46-6.02-6.33-12.35-8.52-18.93s-3.52-13.76-5.64-20.54-4.88-12.61-8.1-18.54c-1.61-2.97-3.31-5.88-5.06-8.77-1.64-2.71-3.18-5.87-5.65-7.94-4.24-3.55-10.94-3.16-16.1-2.82-1.44.1-1.45,2.35,0,2.25h0Z"/><path class="cls-2" d="m206.76,271.11c-1.71,2.98-1.65,6.37-1.48,9.7.15,2.93.34,6.23-1.28,8.83-1.87,3.01-5.87,2.7-8.78,4.06-3.14,1.47-5.59,4.11-7.91,6.62-3,3.26-5.83,6.66-8.54,10.16-.88,1.15,1.07,2.27,1.94,1.14,2.44-3.17,5.02-6.23,7.71-9.18,2.36-2.59,4.84-5.44,8.12-6.88,3.03-1.32,6.49-1.09,8.75-3.87,1.8-2.22,2.3-5.22,2.33-8,.04-3.81-.92-7.94,1.08-11.44.72-1.26-1.22-2.39-1.94-1.14h0Z"/><path class="cls-2" d="m143.33,283.92c15.52,12.92,18.67,33.81,19.78,52.84,1.35,23.24,1.39,46.57,1.48,69.84.05,12.86.12,25.72.44,38.57.04,1.45,2.29,1.45,2.25,0-.59-23.45-.32-46.9-.69-70.35-.19-11.96-.49-23.93-1.1-35.87-.51-9.81-1.37-19.72-3.97-29.23-2.87-10.52-8.11-20.35-16.59-27.4-1.11-.92-2.71.66-1.59,1.59h0Z"/><path class="cls-2" d="m169.55,314.65c-1.72,1.06-2.27,3.3-1.46,5.1s2.78,2.86,4.64,2.75c1.15-.07,2.07-.61,2.72-1.55.49-.71.74-1.58.95-2.41.48-1.89.55-4.09-1.26-5.3s-4.12-.27-5.79.59c-.52.27-.72,1.05-.4,1.54.34.53.98.69,1.54.4.14-.07.29-.15.43-.21.07-.04.15-.07.22-.1.05-.02.25-.11.05-.02.31-.12.62-.24.95-.33.16-.04.32-.08.48-.11,0,0,.31-.05.13-.03s.13,0,.13,0c.15-.01.3-.01.46,0,.06,0,.12,0,.18.02-.28-.03-.02,0,.05.02.08.02.17.05.25.08-.04-.01-.21-.11-.03-.01.06.04.13.07.19.11s.18.17.02,0c.06.05.11.1.17.16.04.05.15.22.04.04.03.06.07.11.1.17.03.06.06.11.09.17-.05-.11-.05-.12-.03-.04.02.14.08.28.1.43-.05-.26,0,.06,0,.1,0,.07,0,.13,0,.2,0,.17-.01.34-.03.51-.02.22,0,.06,0,.01-.02.12-.04.24-.06.36-.13.66-.33,1.28-.53,1.92-.06.18.11-.23-.02.04-.03.06-.05.11-.08.17-.07.14-.15.27-.24.4-.15.24.1-.09-.02.03-.05.05-.11.11-.16.16-.13.14-.02.03.02,0-.09.06-.18.12-.28.17-.14.07.23-.04-.09.03-.07.02-.14.04-.22.05.22-.04-.13,0-.15,0-.08,0-.15,0-.23,0,.02,0-.35-.04-.18-.01.16.02-.16-.03-.15-.03-.18-.04-.35-.09-.53-.15-.05-.02-.25-.11-.05-.02-.06-.03-.12-.06-.18-.09-.15-.08-.29-.17-.43-.25-.26-.16.09.09-.05-.03-.06-.06-.12-.11-.18-.16s-.12-.11-.17-.17c-.04-.04-.23-.31-.1-.11-.09-.14-.17-.28-.25-.42-.15-.26.04.18-.04-.09-.03-.09-.06-.17-.08-.26-.01-.06-.02-.12-.04-.18.06.27,0-.05,0-.11,0-.08,0-.15,0-.23,0-.05.05-.34,0-.07.04-.18.08-.36.14-.53.02-.06.09-.18-.01.01.04-.08.08-.16.13-.24s.1-.15.15-.23c-.11.16-.01.02.06-.05.04-.04.09-.08.13-.13.1-.08.09-.08-.01,0,.05-.04.1-.07.15-.1.5-.31.74-1.02.4-1.54s-1-.73-1.54-.4h0Z"/><path class="cls-2" d="m185.62,492.08c1.14,18.57,1.56,37.18,1.23,55.77-.1,5.31-.25,10.63-.47,15.94-.06,1.45,2.19,1.45,2.25,0,.75-18.59.77-37.2.05-55.79-.21-5.31-.48-10.62-.8-15.92-.09-1.44-2.34-1.45-2.25,0h0Z"/><path class="cls-2" d="m165.38,492.63c.55,19.06.7,38.12.46,57.18-.07,5.41-.17,10.82-.3,16.23-.04,1.45,2.21,1.45,2.25,0,.46-19.06.54-38.13.21-57.19-.09-5.41-.22-10.82-.37-16.23-.04-1.44-2.29-1.45-2.25,0h0Z"/><path class="cls-2" d="m182.44,564.58c-.51,3.29-.66,6.61-.36,9.93.05.61.48,1.12,1.12,1.12.57,0,1.18-.52,1.12-1.12-.27-3.11-.2-6.25.28-9.33.09-.6-.15-1.21-.79-1.38-.53-.15-1.29.18-1.38.79h0Z"/></g></svg>