<?xml version="1.0" encoding="utf-8"?>
<!-- Generator: Adobe Illustrator 27.9.0, SVG Export Plug-In . SVG Version: 6.00 Build 0)  -->
<svg version="1.1" id="Layer_1" xmlns="http://www.w3.org/2000/svg" xmlns:xlink="http://www.w3.org/1999/xlink" x="0px" y="0px"
	 viewBox="0 0 100 100" style="enable-background:new 0 0 100 100;" xml:space="preserve">
<style type="text/css">
	.st0{fill:#F9F7F7;}
</style>
<path class="st0" d="M5.3,0.2v0.5l7.9,89L50,100.2l36.8-10.5l7.9-89.5h-89C5.7,0.2,5.3,0.2,5.3,0.2z M85.5,88.4L50,98.6L14.5,88.4
	L7,1.6h86L85.5,88.4z"/>
<polygon class="st0" points="72.7,41.9 70.9,72.2 50.1,79 29.3,72.2 28.5,57.7 39,57.7 39.3,64.3 50.1,68 60.9,64.3 61.7,52.5 
	38.5,52.5 38,42 62.2,42 63,31.5 26.7,31.5 25.9,21 74.1,21 "/>
</svg>
