<?xml version="1.0" encoding="UTF-8"?>
<svg id="Layer_1" xmlns="http://www.w3.org/2000/svg" version="1.1" viewBox="0 0 113 97.1">
  <!-- Generator: Adobe Illustrator 29.1.0, SVG Export Plug-In . SVG Version: 2.1.0 Build 142)  -->
  <defs>
    <style>
      .st0 {
        fill: #fff;
      }
    </style>
  </defs>
  <path class="st0" d="M0,0h44.2v.2c.2.3,8,13.8,12.3,21.1L68.9.1h44.1l-.4.4c-.4.7-55.3,95.4-55.9,96.3l-.2.3L0,0ZM56.5,94.9L111.2,1h-20.8l-33.8,58.1L22.7,1H1.5l55.1,93.9ZM23.8,1.1c.9,1.5,5.8,9.9,32.7,55.7L89.2,1h-19.4c-.4.7-2.4,4.2-13,22l-.2.3L43.3,1.1h-19.5Z"/>
  <path class="st0" d="M.3.2h43.7c0,.1,12.5,21.5,12.5,21.5L69,.3h43.4c0-.1-55.9,96.4-55.9,96.4L.3.2ZM111.5.8h-21.3l-33.7,57.9L22.8.8H1.1l55.4,94.5L111.5.8ZM89.5.8h-19.9c0,.1-13.1,22.1-13.1,22.1L43.4.9h-20c0-.1,33,56.3,33,56.3L89.5.8Z"/>
</svg>