<?xml version="1.0" encoding="utf-8"?>
<!-- Generator: Adobe Illustrator 27.9.0, SVG Export Plug-In . SVG Version: 6.00 Build 0)  -->
<svg version="1.1" id="Layer_1" xmlns="http://www.w3.org/2000/svg" xmlns:xlink="http://www.w3.org/1999/xlink" x="0px" y="0px"
	 viewBox="0 0 96 96" style="enable-background:new 0 0 96 96;" xml:space="preserve">
<style type="text/css">
	.st0{fill:#F9F7F7;}
</style>
<g>
	<path class="st0" d="M85.3,0H10.7C4.8,0,0,4.8,0,10.7v74.7C0,91.2,4.8,96,10.7,96h74.7C91.2,96,96,91.2,96,85.3V10.7
		C96,4.8,91.2,0,85.3,0z M94.9,84.4c0,5.8-4.7,10.5-10.4,10.5H11.6c-5.8,0-10.4-4.7-10.4-10.4v-73c0-5.8,4.7-10.5,10.4-10.5h72.8
		c5.8,0,10.4,4.7,10.4,10.5V84.4z"/>
	<path class="st0" d="M37.4,28.7h-13v37.9H32V53.3h5.1c3.9,0,6.9-1.1,9.2-3.2c2.3-2.1,3.3-5.1,3.3-8.8s-1.1-6.8-3.3-9.1
		C44,29.9,41.1,28.7,37.4,28.7z M40.6,45.4c-0.8,0.9-1.9,1.5-3.3,1.5H32V35.1h5.3c1.3,0,2.5,0.5,3.3,1.7c0.8,1.1,1.2,2.7,1.2,4.5
		S41.4,44.5,40.6,45.4z"/>
	<path class="st0" d="M65.6,49.7c-2.1-0.9-3.3-1.6-4-2c-0.5-0.5-0.8-1.1-0.8-1.6c0-0.9,0.3-1.6,0.8-2c0.5-0.5,1.2-0.7,1.9-0.7
		c1.9,0,2.8,1.2,2.8,3.5h7.3c0-2.7-0.9-4.8-2.8-6.4c-1.9-1.6-4.3-2.4-7.5-2.4c-2.9,0-5.3,0.8-7.1,2.4c-1.7,1.6-2.7,3.6-2.7,6.1
		c0,2,0.5,3.6,1.7,4.9s3.2,2.5,6.3,3.9c2,0.9,3.3,1.6,4,2.1s0.9,1.1,0.9,1.7c0.4,1.7-0.5,2.5-2.5,2.5c-1.3,0-2.3-0.3-2.8-0.9
		c-0.5-0.7-0.8-1.6-0.9-2.9h-7.1c0,1.6,0.4,3.2,1.3,4.7c0.9,1.5,2.1,2.5,3.7,3.3c1.6,0.8,3.5,1.2,5.5,1.2c3.1,0,5.6-0.8,7.5-2.3
		c1.9-1.5,2.8-3.6,2.8-6.1c0-2.1-0.7-4-1.9-5.3C70.8,52.1,68.7,50.7,65.6,49.7z"/>
</g>
</svg>
