<?xml version="1.0" encoding="utf-8"?>
<!-- Generator: Adobe Illustrator 27.9.0, SVG Export Plug-In . SVG Version: 6.00 Build 0)  -->
<svg version="1.1" id="Layer_1" xmlns="http://www.w3.org/2000/svg" xmlns:xlink="http://www.w3.org/1999/xlink" x="0px" y="0px"
	 viewBox="0 0 100 100" style="enable-background:new 0 0 100 100;" xml:space="preserve">
<style type="text/css">
	.st0{fill:#F9F7F7;}
</style>
<path class="st0" d="M93.8,0H6.3C2.8,0,0,3,0,6.3v87.4c0,3.5,2.9,6.3,6.3,6.3h87.4c3.5,0,6.3-2.9,6.3-6.3V6.3C100.1,3,97.3,0,93.8,0
	z M99,92.8c0,3.4-2.8,6.2-6.2,6.2H7.4c-3.4,0-6.2-2.8-6.2-6.2V7.4c0-3.3,2.8-6.2,6.2-6.2h85.5c3.5,0,6.2,3,6.1,6.2V92.8z"/>
<g>
	<path class="st0" d="M45.2,75.2c0,4.7-1.8,5.8-4.8,5.8c-3.1,0-5.4-2-6.8-4.5L26.1,81c2.1,4.8,7.5,9.5,14.9,9.7
		c8.1,0,13.7-4.3,13.7-13.8V45.2h-9.5V75.2z"/>
	<path class="st0" d="M78.6,63.4l-2.3-1c-3.9-1.7-5.6-2.7-5.6-5.5c0-0.6,0-1.1,0.2-1.6c0.7-1.3,2-2.1,3.9-2.1c2.6,0,4.3,1.1,5.8,3.9
		l7.2-4.4c-0.1,0-0.1-0.1-0.1-0.1l0.2-0.1c-3.1-5.2-7.2-7.3-13-7.3c-5.7,0-10,2.5-12.1,6.4c-1,1.8-1.4,3.7-1.4,5.8
		c0,7.4,4.4,11,11,13.7l2.3,1c4.2,1.8,6.2,3,6.2,6.1c0,0.6-0.1,1.2-0.4,1.8c-0.1,0-0.1,0.1-0.1,0.1c0,0.2-0.1,0.4-0.2,0.5
		c-0.8,1.2-2.5,1.9-4.9,1.9c-4.5,0-6.7-3-8.6-6.2l-7.2,4.8c0.1,0,0.1,0.1,0.1,0.1l-0.2,0.1c2.6,5.2,7.5,9.5,16,9.5
		c6.4-0.2,11.7-2.9,14-7.5c0.4-0.7,0.6-1.6,0.8-2.5c0-0.2,0.1-0.5,0.1-0.7c0-0.2,0.1-0.5,0.1-0.7c0-0.5,0-1,0-1.6
		C90.6,70.3,86.2,67,78.6,63.4z"/>
</g>
</svg>
