<?xml version="1.0" encoding="utf-8"?>
<!-- Generator: Adobe Illustrator 27.9.0, SVG Export Plug-In . SVG Version: 6.00 Build 0)  -->
<svg version="1.1" id="Layer_1" xmlns="http://www.w3.org/2000/svg" xmlns:xlink="http://www.w3.org/1999/xlink" x="0px" y="0px"
	 viewBox="0 0 96 96" style="enable-background:new 0 0 96 96;" xml:space="preserve">
<style type="text/css">
	.st0{fill:#F9F7F7;}
</style>
<g>
	<rect x="58.9" y="38.5" class="st0" width="7.3" height="28.1"/>
	<path class="st0" d="M62.5,35.1c1.2,0,2.3-0.4,2.9-1.1c0.7-0.8,1.1-1.7,1.1-2.8c0-1.2-0.4-2.1-1.1-2.8c-0.7-0.7-1.7-1.1-2.9-1.1
		s-2.1,0.4-2.9,1.1c-0.7,0.7-1.1,1.6-1.1,2.8c0,1.1,0.4,2,1.1,2.8C60.3,34.8,61.3,35.1,62.5,35.1z"/>
	<path class="st0" d="M34.7,58.9h10.4l2,7.7h8.1L43.3,28.8h-7.1L24.5,66.7h8.1L34.7,58.9z M39.9,39.1l3.6,13.5h-7.1L39.9,39.1z"/>
</g>
<path class="st0" d="M85.3,0H10.7C4.8,0,0,4.8,0,10.7v74.7C0,91.2,4.8,96,10.7,96h74.7C91.2,96,96,91.2,96,85.3V10.7
	C96,4.8,91.2,0,85.3,0z M94.9,84.4c0,5.8-4.7,10.5-10.4,10.5H11.6c-5.8,0-10.4-4.7-10.4-10.4v-73c0-5.8,4.7-10.5,10.4-10.5h72.8
	c5.8,0,10.4,4.7,10.4,10.5V84.4z"/>
</svg>
