<?xml version="1.0" encoding="UTF-8"?>
<svg id="sass" xmlns="http://www.w3.org/2000/svg" viewBox="0 0 453.98 444.14">
  <defs>
    <style>
      .cls-1 {
        fill: #fff;
      }
    </style>
  </defs>
  <path class="cls-1" d="M231.8,444.14c-1.05,0-1.94-.82-2-1.89-.06-1.1.78-2.05,1.89-2.11,36.37-2.02,70.17-10.55,100.46-25.33,29.74-14.52,54.72-34.37,74.25-59.02,18.08-22.82,30.74-48.89,37.62-77.49,7.19-29.88,7.88-61.77,2.03-94.81-9.81-55.44-41.38-104.41-88.88-137.89C310.21,12.5,253.56-1.57,197.66,6c-28.45,3.85-55.68,13.18-80.92,27.73-24.49,14.12-45.95,32.44-63.79,54.47C15.88,133.97-1.04,190.13,5.3,246.32c12.69,106.78,78.5,155.17,131.46,176.97,1.55.64,3.17,1.31,4.82,2,10.6,4.42,25.11,10.47,29.56,9.52.11-.09,1.78-1.43,2.38-12.85.39-7.35.22-16.28.08-24.15-.05-2.62-.09-5.13-.11-7.4-4.74.64-9.08.92-13.03.92-24.71,0-34.91-11.19-41.42-18.33l-.34-.37c-6.9-7.55-11.58-15.31-17.5-25.13-1.58-2.62-3.25-5.4-5.09-8.38-4.42-7.15-10.68-9.44-16.2-11.46-4.8-1.76-9.34-3.41-10.32-8.23-.45-2.22.68-4.21,3.03-5.32,8.76-4.13,37.52,2.23,58.98,28.67,16.06,19.9,32.99,16.27,44.64,9.37.52-4.54,1.6-8.99,3.21-13.27,1.05-2.78,2.83-4.98,4.39-6.93,1.38-1.71,2.59-3.22,2.7-4.4-1.15-.43-4.06-.95-6.89-1.46-15.46-2.76-47.63-8.52-68.41-37.64-17.41-24.4-22.22-56.5-12.88-85.88,3.95-12.42,10.4-23.85,19.19-34.01-3.45-7.8-5.27-16.08-5.39-24.63-.12-9.46,1.93-18.98,5.93-27.55.34-.72,1.04-1.18,1.87-1.15,21.51.64,42.03,7.66,59.39,20.34,15.02-4.94,30.65-7.61,46.48-7.93,17.76-.35,35.31,2.25,52.19,7.71,8.58-7.49,18.35-13.28,29.05-17.22,8.41-3.08,17.2-4.93,26.13-5.49.79-.06,1.53.37,1.89,1.06,4.59,8.69,7.1,18.49,7.27,28.31.13,8.75-1.61,17.59-5.05,25.65,10.23,12.62,17.21,26.77,20.75,42.1,4.11,17.78,7.5,52.09-15.92,82.24-20.45,26.33-50.34,30.63-66.4,32.94-3.72.54-7.91,1.14-8.96,1.77-.36,1.49,1.54,4.71,3.73,8.42,3.2,5.43,7.59,12.87,10.35,23.17,5.14,19.17,3.1,54.67,3.01,56.17-.06,1.1-1.02,1.96-2.11,1.88-1.1-.07-1.94-1.01-1.88-2.11.02-.36,2.09-36.36-2.89-54.89-2.62-9.78-6.85-16.94-9.94-22.17-3.18-5.39-5.28-8.95-3.91-12.2,1.01-2.4,4.46-2.89,12.02-3.98,15.5-2.23,44.35-6.38,63.82-31.44,22.41-28.85,19.13-61.8,15.19-78.88-3.49-15.11-10.46-29.04-20.72-41.41-.49-.59-.6-1.4-.28-2.1,3.53-7.83,5.33-16.5,5.19-25.08-.15-8.77-2.29-17.51-6.22-25.36-8.1.63-16.07,2.36-23.7,5.16-10.58,3.9-20.22,9.69-28.63,17.21-.53.48-1.28.63-1.96.41-16.79-5.57-34.27-8.22-51.95-7.86-15.76.32-31.33,3.03-46.27,8.05-.62.21-1.3.1-1.83-.29-16.53-12.31-36.08-19.25-56.63-20.12-3.39,7.71-5.12,16.19-5.01,24.6.12,8.42,1.99,16.56,5.55,24.19.34.72.21,1.58-.32,2.17-8.85,9.98-15.32,21.27-19.23,33.55-8.97,28.18-4.36,58.96,12.32,82.34,19.83,27.79,50.92,33.35,65.86,36.02,6.92,1.24,9.51,1.7,10.04,3.95.75,3.15-1.38,5.79-3.44,8.35-1.45,1.8-2.94,3.65-3.76,5.83-1.61,4.26-2.64,8.71-3.08,13.24-.06.62-.41,1.18-.94,1.51-10.67,6.59-31.44,14.08-50.68-9.76-20.25-24.95-47.49-30.72-54.16-27.57-.92.43-.85.74-.82.9.51,2.5,3.15,3.58,7.77,5.27,5.52,2.02,13.09,4.78,18.23,13.11,1.85,2.99,3.53,5.78,5.12,8.41,5.81,9.63,10.39,17.24,17.03,24.5l.34.37c7.64,8.38,19.2,21.04,53.18,15.82.58-.09,1.16.08,1.61.46s.7.93.7,1.52c0,2.76.06,6.1.12,9.63.51,27.95-.16,39.82-5.62,40.99-5.27,1.13-16.56-3.32-31.94-9.74-1.65-.69-3.26-1.36-4.8-1.99-33.21-13.67-61.08-33.3-82.82-58.36C24.27,336.19,7.09,295.2,1.33,246.78c-6.46-57.27,10.76-114.48,48.51-161.1,18.15-22.41,39.98-41.06,64.9-55.42,25.7-14.81,53.42-24.31,82.38-28.23,56.9-7.69,114.56,6.62,162.36,40.31,48.37,34.09,80.51,83.98,90.51,140.46,5.94,33.58,5.25,66.02-2.08,96.44-7.02,29.17-19.93,55.76-38.37,79.03-19.9,25.12-45.35,45.36-75.63,60.14-30.77,15.02-65.09,23.68-101.99,25.73-.04,0-.08,0-.11,0Z"/>
</svg>