<?xml version="1.0" encoding="utf-8"?>
<!-- Generator: Adobe Illustrator 27.9.0, SVG Export Plug-In . SVG Version: 6.00 Build 0)  -->
<svg version="1.1" id="Layer_1" xmlns="http://www.w3.org/2000/svg" xmlns:xlink="http://www.w3.org/1999/xlink" x="0px" y="0px"
	 viewBox="0 0 100 100" style="enable-background:new 0 0 100 100;" xml:space="preserve">
<style type="text/css">
	.st0{fill:#F9F7F7;}
</style>
<path class="st0" d="M94.1,0.7c-0.3-0.5-1-0.7-1.5-0.7h-85C7,0,6.4,0.2,6,0.7c-0.4,0.5-0.7,1-0.6,1.6L13.1,88c0.1,0.9,0.7,1.6,1.5,2
	l34.8,9.9c0.2,0.1,0.4,0.1,0.7,0.1c0.3,0,0.4,0,0.5-0.1L85.4,90c0.9-0.2,1.5-1,1.5-2l7.6-85.8C94.8,1.7,94.6,1.2,94.1,0.7z M93,3.6
	l-7.4,83.2c0,1-0.6,1.7-1.5,1.9l-33.7,9.6c-0.1,0.1-0.2,0.1-0.5,0.1s-0.5,0-0.7-0.1l-33.7-9.6c-0.8-0.4-1.4-1.1-1.5-1.9L6.9,3.7
	C6.8,3.1,7,2.7,7.4,2.2c0.4-0.5,1-0.7,1.5-0.7h82.2c0.5,0,1.2,0.2,1.5,0.7C93.1,2.7,93.3,3.1,93,3.6z"/>
<polygon class="st0" points="75.8,30.2 34.8,30.2 35.8,41.3 74.8,41.3 71.8,74 49.9,80.7 49.7,80.6 28.1,74 26.9,60.7 37.4,60.7 
	37.5,60.7 37.9,65.9 49.9,68.4 61.9,65.9 63.2,51.9 26.1,51.9 23.2,19.7 23.3,19.7 76.8,19.7 "/>
</svg>
