<?xml version="1.0" encoding="utf-8"?>
<!-- Generator: Adobe Illustrator 27.9.0, SVG Export Plug-In . SVG Version: 6.00 Build 0)  -->
<svg version="1.1" xmlns="http://www.w3.org/2000/svg" xmlns:xlink="http://www.w3.org/1999/xlink" x="0px" y="0px"
	 viewBox="0 0 512 512" style="enable-background:new 0 0 512 512;" xml:space="preserve">
<style type="text/css">
	.st0{display:none;}
	.st1{display:inline;}
	.st2{fill:#F9F7F7;}
	.st3{fill:none;stroke:#F9F7F7;stroke-width:6;stroke-miterlimit:10;}
</style>
<g id="Layer_1" class="st0">
	<g class="st1">
		<circle class="st2" cx="256" cy="256" r="45.8"/>
		<path class="st2" d="M334.8,418.2L334.8,418.2c1.8-5.4,3.5-10.8,5.1-16.2c3.7,0.9,7.4,1.7,11.1,2.5
			c59.6,12.3,107.5,4.2,123.3-23.1c15.1-26.3-0.6-69.2-38.4-112.6c-3.7-4.3-7.6-8.5-11.5-12.5c2.6-2.7,5.2-5.5,7.7-8.3
			c40.4-45.5,57.4-91.1,41.5-118.4c-15.2-26.2-60.3-34-116.7-23c-5.6,1.1-11.1,2.3-16.7,3.7c-1.8-6.4-3.8-12.7-5.9-18.6
			C315.8,38.3,286.6,0,256.4,0c-31.2,0-62.5,40.8-81.5,96.3c-1.5,4.5-3,9-4.3,13.6c-6-1.5-11.9-2.8-18-4
			C97.1,95.4,53.1,103.6,38,129.8c-15.6,27,0.4,72.4,39.1,116.6c3.1,3.5,6.3,7,9.7,10.5c-4.3,4.4-8.4,9-12.4,13.6
			c-36.8,42.8-51.7,85.1-36.6,111.2c15.6,27,62.9,35.8,120.5,24.4c4.4-0.9,8.9-1.9,13.5-3c0.9,3.2,1.9,6.3,2.9,9.4
			c19.1,57.7,50,99.5,81.7,99.5C286.7,512,316.1,472.6,334.8,418.2z M419.7,282.9c32.4,37.2,45.1,71.9,36,87.7
			c-9.7,16.9-48.9,23.4-100.4,12.8c-3.4-0.7-6.7-1.4-10-2.3c5-22.2,8.6-44.7,10.6-67.3c18.6-13,36.4-27.2,53.1-42.6
			C412.7,275.1,416.2,278.9,419.7,282.9z M332.6,182.5c-8.3-5.3-16.8-10.5-25.4-15.4c-8.5-4.9-17.2-9.7-26-14.2
			c14.9-6.3,29.5-11.6,43.6-16l0,0l0,0C328,151.3,330.6,166.6,332.6,182.5z M204.5,167.2c-8.7,5.1-17.4,10.3-25.9,15.8
			c1.7-15.6,4.2-31.1,7.5-46.4c14.4,4.4,29.3,9.9,44.5,16.3C221.8,157.5,213.1,162.2,204.5,167.2z M255.9,164.3L255.9,164.3
			c13.8,6.6,27.3,13.8,40.6,21.4c13.3,7.6,26.2,15.8,38.9,24.4c1.1,15,1.7,30.3,1.7,45.9s-0.6,31-1.7,45.9
			c-12.6,8.5-25.5,16.6-38.7,24.3c-13.2,7.7-26.7,14.9-40.4,21.7c-13.8-6.7-27.4-13.9-40.8-21.6c-13.3-7.6-26.2-15.7-39-24.2
			c-1.1-14.9-1.6-30.4-1.6-46.1s0.5-30.9,1.4-45.6c12.7-8.7,25.7-16.9,39-24.6S242.1,171,255.9,164.3z M204.7,344.9
			c8.8,5.1,17.7,9.9,26.7,14.6c-14.5,6.4-29.2,12-44.3,16.9c-3.5-15.5-6.2-31.2-8-47C187.5,334.8,196.1,339.9,204.7,344.9z
			 M281.2,359.3c8.8-4.7,17.6-9.5,26.2-14.5c8.5-4.9,16.9-10,25.2-15.3c-2,16.1-4.7,31.5-8,45.9
			C309.8,370.8,295.4,365.4,281.2,359.3z M393.7,256.2c-11.4,10.5-23.4,20.4-35.8,29.6c0.9-19.8,0.9-39.7,0-59.5
			C370.8,236.1,382.8,246.2,393.7,256.2z M455,140.2c9.8,16.8-4.2,54.1-39,93.4c-2.2,2.5-4.6,5-7,7.6
			c-16.7-15.5-34.5-29.8-53.1-42.9c-2-22.6-5.5-45-10.4-67.2c5.1-1.3,10.3-2.4,15.5-3.5C409.4,118.2,445.9,124.4,455,140.2z
			 M191.4,115.7c1.2-4.2,2.5-8.3,3.9-12.4c6.7-21.3,17.3-45.5,31.2-63c7-10.1,17.8-16.9,29.9-18.8c18.3,0,41.7,31.6,57.6,77.2
			c2,5.7,3.8,11.5,5.5,17.3c-21.7,6.8-43,15-63.6,24.5C235,130.9,213.4,122.6,191.4,115.7z M93.4,232.3L93.4,232.3
			c-15.1-16.5-27.1-35.6-35.3-56.4c-5.3-11.1-5.8-23.9-1.3-35.3c9.2-15.9,44.5-22.5,92-13.5c5.6,1.1,11.2,2.3,16.7,3.7
			c-4.8,22.4-8.1,45-9.8,67.9c-18.7,13.2-36.6,27.7-53.4,43.2C99.2,238.7,96.2,235.5,93.4,232.3z M117.7,256.8
			c11-10.2,23.2-20.4,36.3-30.3c-0.4,9.6-0.6,19.5-0.6,29.5c0,10.3,0.2,20.4,0.7,30.4C141.4,277.2,129.3,267.3,117.7,256.8z
			 M87.7,387.5c-12.2-0.9-23.6-6.9-31.3-16.5c-9.2-15.9,2.8-49.8,34.2-86.4c3.6-4.2,7.5-8.4,11.5-12.7
			c16.9,15.3,34.8,29.4,53.6,42.2c1.9,22.9,5.4,45.7,10.5,68.2c-4.1,1-8.2,1.9-12.2,2.7C132.4,389.9,109.9,390.7,87.7,387.5z
			 M195.2,405.7c-0.9-2.8-1.8-5.6-2.6-8.5c21.8-7,43.1-15.6,63.8-25.5c20.4,9.6,41.4,17.7,62.9,24.5c-1.5,5.2-3.1,10.2-4.7,15
			c-16,46.6-39.8,79.3-58,79.3C237,490.5,211.7,455.6,195.2,405.7z"/>
	</g>
</g>
<g id="Layer_2">
	<ellipse class="st3" cx="256" cy="256.1" rx="102.1" ry="251.6"/>
	
		<ellipse transform="matrix(0.4904 -0.8715 0.8715 0.4904 -92.7377 353.625)" class="st3" cx="256" cy="256.1" rx="100.7" ry="255.2"/>
	
		<ellipse transform="matrix(0.8715 -0.4904 0.4904 0.8715 -92.7041 158.4861)" class="st3" cx="256" cy="256.1" rx="255.2" ry="100.7"/>
	<ellipse class="st2" cx="256" cy="256" rx="45.9" ry="45"/>
</g>
</svg>
