<?xml version="1.0" encoding="UTF-8"?>
<svg id="sass" xmlns="http://www.w3.org/2000/svg" version="1.1" viewBox="0 0 455 455">
  <!-- Generator: Adobe Illustrator 29.2.0, SVG Export Plug-In . SVG Version: 2.1.0 Build 108)  -->
  <defs>
    <style>
      .st0 {
        fill: #fff;
      }
    </style>
  </defs>
  <path class="st0" d="M351.9,110.1l1.2,1.2c-9.1-35.8-68.6-47.6-124.8-27.7-33.5,11.9-69.6,30.6-95.7,55-30.9,28.9-36,54.2-34,64.7,7.2,37.2,58.2,61.6,79,79.5h0c-6.2,3.2-51.5,25.9-62.1,49.3-11.4,24.7,1.7,42.4,10.3,44.6,26.6,7.4,53.8-6.1,68.4-27.7,14.1-21.2,12.9-48.4,6.7-61.9,8.4-2.4,18.2-3.4,30.8-1.7,35.3,4,42.4,26.2,40.9,35.3-1.5,9.1-8.7,14.3-11.3,15.8s-3.4,2-3,3c.3,1.5,1.5,1.5,3.5,1.3,2.7-.5,18.5-7.6,19.2-24.7.7-21.7-20-45.9-56.8-45.4-15.1.3-24.7,1.5-31.6,4.4-.5-.8-1-1.3-1.7-1.8-22.7-24.4-64.7-41.5-63.1-74.2.5-11.9,4.7-43.1,80.7-80.9,62.4-31.1,112-22.4,120.6-3.5,12.3,26.9-26.6,77.2-91.3,84.4-24.7,2.7-37.5-6.7-40.9-10.3-3.5-3.9-4-4-5.2-3.2-2,1-.7,4.4,0,6.4,2,5,9.9,14,23.5,18.5,11.8,3.7,40.9,6.1,75.7-7.6,39-15.1,69.6-57.3,60.7-92.7l.2-.2ZM184.8,295l1.8-1c2.9,10.9,2.7,21-.3,30.1l-1.2,3c-.3,1-.8,2-1.3,3-2.4,4.9-5.5,9.4-9.2,13.6-11.8,12.8-28.1,17.7-35.1,13.5-7.6-4.4-3.9-22.4,9.8-36.8,14.6-15.5,35.7-25.4,35.7-25.4h0Z"/>
  <path class="st0" d="M227.5,454.8C102,454.8,0,352.8,0,227.5S102,0,227.5,0s227.5,102,227.5,227.5-102,227.5-227.5,227.5v-.2ZM227.5,4.7C104.6,4.7,4.7,104.6,4.7,227.5s99.9,222.8,222.8,222.8,222.8-99.9,222.8-222.8S350.2,4.7,227.5,4.7Z"/>
</svg>